<svg width="169" height="52" viewBox="0 0 169 52" fill="none" xmlns="http://www.w3.org/2000/svg">
<g clip-path="url(#clip0_1654_96751)">
<path d="M135.087 9.80176L129.42 0.00195312L123.758 9.80176L127.69 7.59964L129.42 11.4808L131.154 7.59964L135.087 9.80176Z" fill="#FFB71B"/>
<path d="M139.354 28.6431H145.975L136.691 12.5625H130.066L139.354 28.6431Z" fill="#001C71"/>
<path d="M112.883 28.6431H119.5L128.788 12.5625H122.17L112.883 28.6431Z" fill="#001C71"/>
<path d="M7.90223 49.2428C5.64524 49.2428 4.08327 47.3626 4.08327 45.102C4.08327 42.8413 5.68182 40.9611 7.90223 40.9611C9.40933 40.9611 10.2726 41.5062 11.2895 42.428L13.0198 40.4344C11.798 39.2309 10.4043 38.2871 7.92052 38.2871C3.87477 38.2871 1.05078 41.3562 1.05078 45.102C1.05078 48.8478 3.92963 51.9168 7.80712 51.9168C10.3494 51.9168 11.8529 51.1267 13.21 49.6781L11.3664 47.7028C10.3312 48.6429 9.40933 49.2465 7.90223 49.2465V49.2428Z" fill="#001C71"/>
<path d="M28.7508 42.9077C28.7508 41.6274 28.3593 40.5922 27.6351 39.8606C26.7791 38.9973 25.4951 38.5254 23.838 38.5254H17.8828V51.6942H20.7507V47.5095H22.9711L25.8097 51.6942H29.1422L25.9597 46.99C27.6168 46.3682 28.7508 45.033 28.7508 42.9077ZM23.6917 44.9525H20.747V41.1555H23.6369C25.0525 41.1555 25.9231 41.7993 25.9231 43.043C25.9231 44.1953 25.111 44.9489 23.6954 44.9489L23.6917 44.9525Z" fill="#001C71"/>
<path d="M36.6963 46.346H42.8929V43.789H36.6963V41.0784H43.7452V38.5215H33.832V51.6903H43.8257V49.1334H36.6963V46.346Z" fill="#001C71"/>
<path d="M54.7452 38.5215H49.6094V51.6903H54.7452C58.8824 51.6903 61.743 48.8115 61.743 45.1059C61.743 41.4003 58.8824 38.5215 54.7452 38.5215ZM54.7306 49.0566H52.4736V41.0784H54.7233C57.1741 41.0784 58.8056 42.8196 58.7068 45.2705C58.6227 47.3922 56.8522 49.0566 54.7269 49.0566H54.7306Z" fill="#001C71"/>
<path d="M69.3015 38.5215H66.4336V51.6903H69.3015V38.5215Z" fill="#001C71"/>
<path d="M74.207 41.1552H78.2345V51.6903H81.1024V41.1552H85.1299V38.5215H74.207V41.1552Z" fill="#001C71"/>
<path d="M103.722 46.0719C103.722 48.1606 102.654 49.2324 100.895 49.2324C99.1352 49.2324 98.0671 48.1203 98.0671 45.9768V38.5254H95.1992V46.0536C95.1992 49.9311 97.3611 51.9064 100.895 51.9064C104.428 51.9064 106.663 49.9494 106.663 45.9585V38.5254H103.719V46.0719H103.722Z" fill="#001C71"/>
<path d="M121.287 46.6313L115.102 38.5215H112.453V51.6903H115.321V43.3208L121.712 51.6903H124.151V38.5215H121.287V46.6313Z" fill="#001C71"/>
<path d="M132.805 38.5215H129.938V51.6903H132.805V38.5215Z" fill="#001C71"/>
<path d="M144.512 38.291C140.448 38.291 137.492 41.3601 137.492 45.1059C137.492 48.8517 140.411 51.9208 144.475 51.9208C148.539 51.9208 151.495 48.8517 151.495 45.1059C151.495 41.3601 148.58 38.291 144.512 38.291ZM144.512 49.2468C142.178 49.2468 140.521 47.3665 140.521 45.1059C140.521 42.8452 142.138 40.965 144.472 40.965C146.805 40.965 148.463 42.8452 148.463 45.1059C148.463 47.3665 146.846 49.2468 144.512 49.2468Z" fill="#001C71"/>
<path d="M165.014 46.6313L158.828 38.5215H156.18V51.6903H159.048V43.3208L165.438 51.6903H167.878V38.5215H165.014V46.6313Z" fill="#001C71"/>
<path d="M68.1788 29.1676C72.038 29.1676 75.312 27.8507 78.0042 25.2169C80.6965 22.5831 82.0427 19.3604 82.0427 15.5488C82.0427 11.7371 80.6965 8.46322 78.0042 5.79288C75.312 3.12253 72.038 1.79102 68.1788 1.79102C64.3196 1.79102 61.053 3.12619 58.3717 5.79288C55.6904 8.45957 54.3516 11.7115 54.3516 15.5488C54.3516 19.386 55.6904 22.5831 58.3717 25.2169C61.053 27.8507 64.3196 29.1676 68.1788 29.1676ZM62.4102 9.46552C63.9685 7.83771 65.8926 7.02197 68.1788 7.02197C70.4651 7.02197 72.3892 7.83771 73.9475 9.46552C75.5058 11.0933 76.285 13.1199 76.285 15.5488C76.285 17.9777 75.5058 19.9567 73.9475 21.5626C72.3892 23.1684 70.4651 23.9732 68.1788 23.9732C65.8926 23.9732 63.9685 23.1684 62.4102 21.5626C60.8518 19.9567 60.0727 17.9521 60.0727 15.5488C60.0727 13.1455 60.8518 11.097 62.4102 9.46552Z" fill="#001C71"/>
<path d="M105.722 14.0562C107.2 12.9002 107.939 11.2834 107.939 9.20565C107.939 7.1279 107.218 5.42692 105.773 4.17954C104.329 2.93216 102.372 2.30664 99.8987 2.30664H87.5273V28.6443H100.594C103.41 28.6443 105.653 27.9346 107.317 26.5117C108.982 25.0887 109.812 23.1902 109.812 20.8125C109.812 17.6703 108.447 15.4169 105.722 14.0562ZM93.2448 7.16082H99.3098C100.188 7.16082 100.897 7.39859 101.442 7.87047C101.984 8.34235 102.258 8.97153 102.258 9.758C102.258 10.614 101.987 11.2907 101.442 11.7845C100.901 12.282 100.188 12.5308 99.3098 12.5308H93.2448V7.16082ZM103.052 22.8756C102.313 23.4865 101.285 23.7938 99.9682 23.7938H93.2448V16.7924H99.9682C101.263 16.7924 102.284 17.1143 103.034 17.7617C103.784 18.4092 104.16 19.2652 104.16 20.326C104.16 21.3868 103.791 22.2611 103.052 22.872V22.8756Z" fill="#001C71"/>
<path d="M155.866 2.30664H150.148V28.6443H168.929V23.6548H155.866V2.30664Z" fill="#001C71"/>
<path d="M51.4987 23.6548H38.4323V2.30664H32.7148V28.6443H51.4987V23.6548Z" fill="#001C71"/>
<path d="M27.2339 15.5485C27.2339 14.8791 27.1863 14.1731 27.0949 13.4342H11.7422V18.2847H21.4798C21.0189 20.0406 20.13 21.4306 18.8131 22.4585C17.4963 23.4864 15.8794 24.0022 13.9626 24.0022C11.6288 24.0022 9.67543 23.1865 8.10615 21.5586C6.53686 19.9308 5.75039 17.9153 5.75039 15.512C5.75039 13.1086 6.51857 11.0931 8.05493 9.46527C9.5913 7.83746 11.4898 7.02172 13.7541 7.02172C16.1501 7.02172 18.0413 7.78259 19.435 9.297L24.3953 6.34865C23.6307 5.43049 22.7162 4.62938 21.6408 3.95265C19.3399 2.50774 16.7134 1.78711 13.7578 1.78711C9.89857 1.78711 6.64294 3.11131 3.98357 5.75605C1.32786 8.40079 0 11.6528 0 15.512C0 19.3712 1.33517 22.6158 4.00186 25.2496C6.67221 27.8833 9.9571 29.2002 13.8602 29.2002C17.7633 29.2002 20.9714 27.9126 23.4771 25.3374C25.9828 22.7621 27.2375 19.4992 27.2375 15.5485H27.2339Z" fill="#001C71"/>
</g>
<defs>
<clipPath id="clip0_1654_96751">
<rect width="169" height="51.9437" fill="white"/>
</clipPath>
</defs>
</svg>