<svg xmlns="http://www.w3.org/2000/svg" width="92" height="93" viewBox="0 0 92 93" fill="none"><path d="M6.87998 28.47C6.69028 28.8418 6.4251 29.1699 6.10138 29.4333C5.77766 29.6968 5.40253 29.8898 4.99998 30C4.59623 30.1089 4.17595 30.1428 3.75998 30.1C3.32906 30.0551 2.91116 29.926 2.52998 29.72C2.14932 29.5143 1.81022 29.2397 1.52998 28.91C1.26382 28.5856 1.05729 28.2165 0.919977 27.82C0.790383 27.434 0.73938 27.026 0.769977 26.62C0.798083 26.207 0.913997 25.8047 1.10998 25.44C1.30454 25.072 1.57358 24.7484 1.89998 24.49C2.2249 24.2262 2.59871 24.0291 2.99998 23.91C3.40041 23.8017 3.81731 23.7678 4.22998 23.81C4.66209 23.8557 5.08049 23.9884 5.45998 24.2C5.84427 24.4002 6.18435 24.6757 6.45998 25.01C6.72845 25.3275 6.93227 25.6943 7.05998 26.09C7.19269 26.4754 7.24709 26.8833 7.21998 27.29C7.19187 27.7031 7.07596 28.1053 6.87998 28.47V28.47ZM5.87998 27.96C6.00736 27.7225 6.07916 27.4593 6.08998 27.19C6.11484 26.9233 6.0842 26.6543 5.99998 26.4C5.90665 26.1439 5.76775 25.9067 5.58998 25.7C5.40746 25.4812 5.18307 25.301 4.92998 25.17C4.67601 25.0312 4.39754 24.9429 4.10998 24.91C3.8386 24.8793 3.56387 24.8997 3.29998 24.97C3.04312 25.0352 2.80178 25.1508 2.58998 25.31C2.37076 25.4693 2.19253 25.6783 2.06998 25.92C1.9427 26.1545 1.86765 26.4138 1.84998 26.68C1.84002 26.9485 1.88073 27.2165 1.96998 27.47C2.05959 27.7288 2.19509 27.9693 2.36998 28.18C2.55905 28.3961 2.78614 28.5758 3.03998 28.71C3.29102 28.8455 3.56622 28.9305 3.84998 28.96C4.12406 28.9938 4.40203 28.9769 4.66998 28.91C4.92713 28.8406 5.1683 28.7217 5.37998 28.56C5.59565 28.4146 5.77661 28.2234 5.90998 28L5.87998 27.96Z" fill="white"></path><path d="M10.91 22.3C10.658 22.6287 10.3372 22.8984 9.97002 23.09C9.60984 23.2811 9.21579 23.4 8.81002 23.44C8.39612 23.4795 7.97847 23.4388 7.58002 23.32C7.16002 23.2049 6.76845 23.004 6.43002 22.73C6.08154 22.4553 5.7895 22.1157 5.57002 21.73C5.36744 21.3699 5.22872 20.9774 5.16002 20.57C5.09972 20.1667 5.12011 19.7554 5.22002 19.36C5.31738 18.9552 5.50164 18.5765 5.76002 18.25C6.05619 17.8593 6.44911 17.5525 6.90002 17.36C7.34008 17.1655 7.81947 17.0765 8.30002 17.1L8.11002 18.19C7.82557 18.1976 7.54601 18.2658 7.29002 18.39C7.03015 18.5193 6.80152 18.7035 6.62002 18.93C6.45363 19.1374 6.33729 19.3804 6.28002 19.64C6.23021 19.9043 6.23021 20.1757 6.28002 20.44C6.32883 20.7091 6.42716 20.9668 6.57002 21.2C6.71805 21.4473 6.91144 21.6644 7.14002 21.84C7.58207 22.1887 8.13838 22.3599 8.70002 22.32C8.96547 22.298 9.22386 22.2232 9.46002 22.1C9.69959 21.9788 9.90825 21.8043 10.07 21.59C10.2572 21.3666 10.3815 21.0974 10.43 20.81C10.4895 20.5332 10.4895 20.2468 10.43 19.97L11.43 19.52C11.5619 20.0022 11.5858 20.5075 11.5 21C11.4108 21.4745 11.2084 21.9205 10.91 22.3V22.3Z" fill="white"></path><path d="M11.84 12L12.64 11.25L16.93 15.86L16.13 16.61L14.2 14.54L12.29 16.32L14.22 18.39L13.41 19.14L9.12 14.52L9.93 13.78L11.54 15.52L13.45 13.74L11.84 12Z" fill="white"></path><path d="M16.42 8.43999L17.42 7.73999L22.82 11.74L21.82 12.39L20.82 11.68L18.58 13.18L19 14.31L18 15L16.42 8.43999ZM18.42 12.02L20 11L17.77 9.32999L18.42 12.02Z" fill="white"></path><path d="M28.22 2.52001L29.22 2.14001L31.4 8.06001L30.4 8.44001L29.4 5.78001L27 6.69001L28 9.34001L27 9.72001L24.74 3.80001L25.74 3.42001L26.56 5.65001L29 4.75001L28.22 2.52001Z" fill="white"></path><path d="M36 7.15002C35.5944 7.23497 35.1756 7.23497 34.77 7.15002C34.3731 7.05484 33.9991 6.88146 33.67 6.64002C32.9734 6.1402 32.5026 5.38541 32.36 4.54002C32.2749 4.11423 32.2749 3.67581 32.36 3.25002C32.4474 2.84192 32.6066 2.45255 32.83 2.10002C33.0523 1.75606 33.3413 1.46022 33.68 1.23002C34.0139 0.99671 34.3917 0.833829 34.7906 0.751306C35.1895 0.668782 35.601 0.668345 36 0.750021C36.3954 0.849514 36.7686 1.02252 37.1 1.26002C37.7856 1.77435 38.2531 2.52738 38.41 3.37002C38.4951 3.79581 38.4951 4.23423 38.41 4.66002C38.3476 5.06278 38.2084 5.44981 38 5.80002C37.7751 6.14467 37.4866 6.44333 37.15 6.68002C36.8036 6.91521 36.4119 7.07531 36 7.15002V7.15002ZM35.8 6.07002C36.0656 6.01938 36.3176 5.91379 36.54 5.76002C36.726 5.59502 36.8817 5.39872 37 5.18002C37.1512 4.95003 37.2534 4.6913 37.3 4.42002C37.3609 4.13996 37.3609 3.85008 37.3 3.57002C37.2539 3.28455 37.1483 3.01197 36.99 2.77002C36.7067 2.30609 36.2554 1.96936 35.73 1.83002C35.4667 1.76967 35.1932 1.76967 34.93 1.83002C34.6662 1.87647 34.4166 1.98249 34.2 2.14002C33.9786 2.29703 33.7904 2.49624 33.6463 2.7262C33.5021 2.95616 33.4048 3.21234 33.36 3.48002C33.305 3.76068 33.305 4.04936 33.36 4.33002C33.4148 4.61302 33.5198 4.88395 33.67 5.13002C33.8209 5.35745 34.0065 5.55989 34.22 5.73002C34.4602 5.86932 34.725 5.961 35 6.00002C35.2451 6.07898 35.5046 6.10289 35.76 6.07002H35.8Z" fill="white"></path><path d="M43.06 6.46C42.5916 6.47919 42.1283 6.35725 41.73 6.11C41.3419 5.86801 41.0299 5.52139 40.83 5.11C40.6078 4.68387 40.4912 4.21059 40.49 3.73L40.43 0.08H41.53L41.59 3.76C41.5867 4.04348 41.6483 4.32396 41.77 4.58C41.8761 4.81789 42.0456 5.022 42.26 5.17C42.4942 5.31403 42.7651 5.38699 43.04 5.38C43.3158 5.38507 43.5859 5.30089 43.81 5.14C44.0188 4.98694 44.1814 4.77935 44.28 4.54C44.3823 4.27539 44.4332 3.99369 44.43 3.71L44.37 0H45.47L45.53 3.67C45.5362 4.03385 45.4786 4.39598 45.36 4.74C45.2534 5.06452 45.0872 5.36634 44.87 5.63C44.6499 5.88137 44.3812 6.08548 44.08 6.23C43.7611 6.38101 43.4128 6.45956 43.06 6.46V6.46Z" fill="white"></path><path d="M49.52 6.87998C49.1707 6.83774 48.832 6.73271 48.52 6.56998C48.2451 6.4243 47.998 6.23136 47.79 5.99998C47.5907 5.76789 47.4532 5.48931 47.39 5.18998L48.46 4.99998C48.49 5.13925 48.5635 5.26536 48.67 5.35998C48.7949 5.48679 48.9402 5.5916 49.1 5.66998C49.2845 5.75342 49.4797 5.81065 49.68 5.83998C49.8852 5.87524 50.0949 5.87524 50.3 5.83998C50.4805 5.80905 50.6516 5.73722 50.8 5.62998C50.9261 5.5319 51.0087 5.38828 51.03 5.22998C51.0463 5.15395 51.044 5.07508 51.023 5.00018C51.0021 4.92528 50.9634 4.85657 50.91 4.79998C50.7877 4.66769 50.6419 4.5592 50.48 4.47998C50.2951 4.39131 50.1047 4.31449 49.91 4.24998C49.513 4.13392 49.1305 3.97288 48.77 3.76998C48.4495 3.58625 48.1837 3.32047 48 2.99998C47.8355 2.69422 47.7791 2.34182 47.84 1.99998C47.8729 1.61719 48.0477 1.26052 48.33 0.999979C48.6095 0.734338 48.9546 0.547945 49.33 0.459979C49.697 0.372651 50.0777 0.359054 50.45 0.419979C50.7978 0.463475 51.1358 0.564876 51.45 0.71998C51.7406 0.86798 52.0015 1.06795 52.22 1.30998C52.4244 1.54385 52.5656 1.82614 52.63 2.12998L51.55 2.34998C51.5101 2.21039 51.4258 2.08756 51.31 1.99998C51.1852 1.87317 51.0398 1.76836 50.88 1.68998C50.6956 1.60653 50.5003 1.54931 50.3 1.51998C50.0953 1.47981 49.8847 1.47981 49.68 1.51998C49.5007 1.5549 49.3305 1.62638 49.18 1.72998C49.0532 1.82459 48.9673 1.96412 48.94 2.11998C48.9248 2.20167 48.9267 2.28562 48.9457 2.36653C48.9646 2.44743 49.0001 2.52352 49.05 2.58998C49.1598 2.71995 49.3009 2.81976 49.46 2.87998L50.07 3.08998C50.457 3.20766 50.8269 3.37577 51.17 3.58998C51.4838 3.76933 51.7483 4.02355 51.94 4.32998C52.1195 4.63037 52.1835 4.98585 52.12 5.32998C52.0756 5.68579 51.9137 6.01661 51.66 6.26998C51.393 6.52598 51.0666 6.71155 50.71 6.80998C50.3231 6.9194 49.9171 6.94329 49.52 6.87998Z" fill="white"></path><path d="M53.54 7.5L55.33 1.5L59.12 2.62L58.81 3.68L56.07 2.87L55.71 4L57.88 4.65L57.57 5.65L55.4 5.1L54.91 6.75L57.64 7.56L57.33 8.62L53.54 7.5Z" fill="white"></path><path d="M63.09 7.52002L65.64 8.86002L65.13 9.86002L62.58 8.50002L63.09 7.52002Z" fill="white"></path><path d="M68 14.39C67.6615 14.1524 67.3812 13.8413 67.18 13.48C66.973 13.1272 66.8403 12.7359 66.79 12.33C66.6775 11.4767 66.8997 10.613 67.41 9.91998C67.6605 9.5585 67.9758 9.24657 68.34 8.99998C68.6988 8.79637 69.092 8.66076 69.5 8.59998C69.8994 8.51998 70.3106 8.51998 70.71 8.59998C71.1161 8.68053 71.4989 8.85142 71.83 9.09998C72.1719 9.34082 72.4555 9.65518 72.66 10.02C72.8494 10.3802 72.9649 10.7746 73 11.18C73.0796 11.5861 73.0796 12.0038 73 12.41C72.8998 12.8339 72.7125 13.2324 72.45 13.58C72.1981 13.9327 71.8786 14.2318 71.51 14.46C70.806 14.906 69.9572 15.0636 69.14 14.9C68.7269 14.8167 68.3375 14.6425 68 14.39V14.39ZM68.64 13.51C68.8602 13.6632 69.1082 13.7719 69.37 13.83C69.634 13.8839 69.9061 13.8839 70.17 13.83C70.4378 13.782 70.693 13.68 70.92 13.53C71.1638 13.3764 71.3746 13.1759 71.54 12.94C71.7146 12.7112 71.8405 12.4492 71.91 12.17C71.9797 11.906 72 11.6314 71.97 11.36C71.9323 11.0938 71.8477 10.8365 71.72 10.6C71.5946 10.3658 71.4166 10.1639 71.2 10.01C70.982 9.8529 70.7332 9.74383 70.47 9.68998C70.0613 9.62213 69.6418 9.66945 69.2586 9.82665C68.8753 9.98385 68.5434 10.2447 68.3 10.58C68.1273 10.8099 68.0016 11.0715 67.93 11.35C67.8607 11.6175 67.8404 11.8953 67.87 12.17C67.906 12.4333 67.9908 12.6877 68.12 12.92C68.2435 13.1525 68.4178 13.3542 68.63 13.51H68.64Z" fill="white"></path><path d="M73.52 19.22C73.2281 18.9169 73.0032 18.5557 72.86 18.16C72.7191 17.7765 72.6612 17.3675 72.69 16.96C72.7102 16.5474 72.8122 16.1429 72.99 15.77C73.3641 14.9626 74.0333 14.3292 74.86 14C75.2493 13.852 75.6636 13.7807 76.08 13.79C76.4857 13.7968 76.8864 13.8817 77.26 14.04C77.636 14.1964 77.9763 14.4278 78.26 14.72C78.5785 15.0506 78.8148 15.4513 78.95 15.89C79.0837 16.3758 79.1009 16.8863 79 17.38L78 17C78.0407 16.716 78.0168 16.4265 77.9303 16.1529C77.8437 15.8794 77.6966 15.6289 77.5 15.42C77.3166 15.2365 77.0992 15.0905 76.86 14.99C76.612 14.8904 76.3472 14.8394 76.08 14.84C75.8021 14.84 75.527 14.8943 75.27 15C74.9954 15.1167 74.7446 15.2828 74.53 15.49C74.3209 15.6838 74.1541 15.9187 74.04 16.18C73.8057 16.6714 73.7734 17.235 73.95 17.75C74.0388 18.0046 74.1821 18.2366 74.37 18.43C74.4996 18.568 74.6518 18.683 74.82 18.77C74.986 18.8599 75.1647 18.9239 75.35 18.96C75.5425 18.9851 75.7375 18.9851 75.93 18.96C76.1395 18.9397 76.345 18.8892 76.54 18.81L75.7 18L76.39 17.34L78.08 19.1C77.7675 19.4097 77.4016 19.6604 77 19.84C76.6089 19.9998 76.1923 20.0878 75.77 20.1C75.3556 20.1134 74.9431 20.0384 74.56 19.88C74.1682 19.7408 73.8127 19.5153 73.52 19.22V19.22Z" fill="white"></path><path d="M82.74 20.33L83.46 21.33L79.57 26.79L78.9 25.79L79.59 24.79L78.07 22.57L76.92 22.87L76.26 21.87L82.74 20.33ZM79.2 22.38L80.27 24L81.87 21.74L79.2 22.38Z" fill="white"></path><path d="M80.25 28.1L86 25.42L86.5 26.5L83.72 30.74L87.63 28.91L88.09 29.91L82.39 32.59L81.89 31.52L84.66 27.27L80.76 29.1L80.25 28.1Z" fill="white"></path><path d="M83 34.51L89 32.51L89.34 33.56L83.34 35.51L83 34.51Z" fill="white"></path><path d="M84.37 40.19C84.2865 39.7876 84.2865 39.3724 84.37 38.97C84.4591 38.5697 84.6292 38.1919 84.87 37.86C85.1114 37.5205 85.4172 37.2316 85.77 37.01C86.1393 36.7606 86.5595 36.5967 87 36.53C87.8429 36.3566 88.7202 36.5141 89.45 36.97C89.794 37.188 90.09 37.4739 90.32 37.81C90.5619 38.1464 90.7259 38.5324 90.8 38.94C90.9027 39.4212 90.8786 39.9209 90.73 40.39C90.5786 40.848 90.3296 41.2677 90 41.62L89.29 40.75C89.4707 40.5336 89.6036 40.2814 89.68 40.01C89.7447 39.727 89.7447 39.433 89.68 39.15C89.6277 38.8863 89.5185 38.6372 89.36 38.42C89.2046 38.2031 89.0074 38.0195 88.78 37.88C88.2962 37.5812 87.7145 37.4843 87.16 37.61C86.8784 37.6588 86.6096 37.7642 86.37 37.92C86.1384 38.0655 85.9351 38.2519 85.77 38.47C85.6131 38.6856 85.5009 38.9304 85.44 39.19C85.3798 39.4499 85.3798 39.7201 85.44 39.98C85.4953 40.2683 85.6187 40.5392 85.8 40.77C85.9729 40.9932 86.191 41.1772 86.44 41.31L86.11 42.37C85.6821 42.1671 85.3034 41.8737 85 41.51C84.6843 41.1287 84.4679 40.6752 84.37 40.19V40.19Z" fill="white"></path><path d="M91.4 52.17H90.31L90.37 50.25L85.18 50V48.9L90.38 49.08L90.45 47.16H91.55L91.4 52.17Z" fill="white"></path><path d="M84.9 53.51L91.11 54.62L90.41 58.51L89.33 58.32L89.83 55.51L88.57 55.28L88.17 57.51L87.09 57.32L87.49 55.09L85.79 54.78L85.29 57.59L84.21 57.4L84.9 53.51Z" fill="white"></path><path d="M89.16 62.92L88.75 64.12L82.05 64.25L82.42 63.15H83.61L84.48 60.6L83.56 59.85L83.94 58.75L89.16 62.92ZM85.39 61.3L84.78 63.1L87.54 63L85.39 61.3Z" fill="white"></path><path d="M78.73 70.13C78.9094 69.8411 79.1359 69.5842 79.4 69.37C79.6522 69.1651 79.9405 69.0091 80.25 68.91C80.5447 68.8301 80.8553 68.8301 81.15 68.91L80.92 69.98C80.7826 69.9416 80.6374 69.9416 80.5 69.98C80.3353 70.0473 80.1832 70.142 80.05 70.26C79.894 70.392 79.7591 70.5471 79.65 70.72C79.5409 70.8964 79.46 71.0887 79.41 71.29C79.37 71.4678 79.37 71.6522 79.41 71.83C79.4465 71.9845 79.5392 72.12 79.67 72.21C79.7373 72.2492 79.8118 72.2747 79.889 72.285C79.9662 72.2953 80.0448 72.2902 80.12 72.27C80.2894 72.2108 80.4457 72.1191 80.58 72C80.7363 71.8704 80.8833 71.7301 81.02 71.58C81.2901 71.263 81.5954 70.9778 81.93 70.73C82.2235 70.5148 82.5683 70.3803 82.93 70.34C83.2848 70.3084 83.6393 70.4041 83.93 70.61C84.2377 70.7974 84.4736 71.0826 84.6 71.42C84.7238 71.7658 84.7582 72.1373 84.7 72.5C84.6464 72.8956 84.5065 73.2746 84.29 73.61C84.1049 73.8947 83.8792 74.1507 83.62 74.37C83.3677 74.5747 83.0794 74.7307 82.77 74.83C82.4719 74.9098 82.1581 74.9098 81.86 74.83L82.09 73.76C82.2267 73.803 82.3733 73.803 82.51 73.76C82.6762 73.7003 82.8291 73.6086 82.96 73.49C83.1132 73.3579 83.2448 73.2027 83.35 73.03C83.4649 72.8603 83.5464 72.6702 83.59 72.47C83.6248 72.2883 83.6248 72.1017 83.59 71.92C83.5497 71.7642 83.4522 71.6294 83.3169 71.5423C83.1816 71.4552 83.0185 71.4222 82.86 71.45C82.6969 71.4987 82.5489 71.5881 82.43 71.71C82.29 71.85 82.14 72 81.98 72.18C81.7122 72.4808 81.4101 72.7493 81.08 72.98C80.7823 73.1893 80.4399 73.3262 80.08 73.38C79.7286 73.4239 79.3732 73.3386 79.08 73.14C78.7723 72.9545 78.5335 72.6736 78.4 72.34C78.2758 71.9908 78.2414 71.616 78.3 71.25C78.3562 70.8488 78.5033 70.4657 78.73 70.13V70.13Z" fill="white"></path><path d="M78.38 81.08L77.54 80.37L78.8 78.9L74.8 75.52L75.51 74.69L79.51 78.07L80.76 76.61L81.6 77.32L78.38 81.08Z" fill="white"></path><path d="M70.46 79.66C70.7762 79.3944 71.1439 79.1969 71.54 79.08C71.9341 78.9739 72.3453 78.9468 72.75 79C73.1644 79.0509 73.5669 79.1727 73.94 79.36C74.3223 79.5633 74.6618 79.8383 74.94 80.17C75.3532 80.6483 75.6207 81.2349 75.7111 81.8604C75.8015 82.486 75.7109 83.1243 75.45 83.7C75.2701 84.0832 75.0111 84.424 74.69 84.7C74.3771 84.9727 74.0085 85.174 73.61 85.29C73.2173 85.4033 72.806 85.4373 72.4 85.39C71.9848 85.3391 71.5837 85.2066 71.22 85C70.8383 84.7959 70.4989 84.521 70.22 84.19C69.6658 83.536 69.3799 82.6963 69.42 81.84C69.4396 81.4337 69.5417 81.0356 69.72 80.67C69.8882 80.2823 70.141 79.9372 70.46 79.66ZM71.17 80.5C70.9659 80.6724 70.8021 80.8875 70.69 81.13C70.5808 81.3761 70.5197 81.6409 70.51 81.91C70.4951 82.1821 70.5359 82.4543 70.63 82.71C70.7223 82.9808 70.8648 83.2319 71.05 83.45C71.2312 83.6728 71.4557 83.8566 71.71 83.99C71.9528 84.1177 72.2174 84.1991 72.49 84.23C72.7514 84.275 73.0186 84.275 73.28 84.23C73.5374 84.1539 73.776 84.0245 73.98 83.85C74.187 83.6779 74.3542 83.463 74.47 83.22C74.5802 82.9742 74.6413 82.7092 74.65 82.44C74.66 82.1682 74.6193 81.8969 74.53 81.64C74.3421 81.0906 73.9525 80.633 73.44 80.36C73.1972 80.2323 72.9326 80.1509 72.66 80.12C72.3961 80.0813 72.127 80.0984 71.87 80.17C71.616 80.2294 71.3775 80.3419 71.17 80.5V80.5Z" fill="white"></path><path d="M66.76 82.68L70 88.09L67.92 89.33C67.6453 89.5037 67.3248 89.5908 67 89.58C66.6762 89.5824 66.358 89.4959 66.08 89.33C65.7887 89.1673 65.5468 88.9289 65.38 88.64C65.2449 88.4086 65.1534 88.1544 65.11 87.89C65.0811 87.6352 65.1014 87.3771 65.17 87.13C65.2386 86.8897 65.3541 86.6654 65.51 86.47L62.87 85L64 84.35L66.53 85.76L67.14 85.4L65.85 83.24L66.76 82.68ZM67.66 86.34L66.66 86.95C66.5304 87.0276 66.4234 87.1379 66.35 87.27C66.2819 87.4029 66.2475 87.5506 66.25 87.7C66.2506 87.8547 66.292 88.0064 66.37 88.14C66.4511 88.2729 66.5647 88.383 66.7 88.46C66.8333 88.5284 66.9802 88.566 67.13 88.57C67.2815 88.569 67.4299 88.5276 67.56 88.45L68.56 87.84L67.66 86.34Z" fill="white"></path><path d="M61.49 85.67L63.94 91.47L60.3 93L59.87 92L62.5 90.9L62 89.71L59.92 90.59L59.49 89.59L61.58 88.71L60.91 87.11L58.28 88.22L57.85 87.22L61.49 85.67Z" fill="white"></path><path d="M47.17 43.64C46.2712 44.7363 45.2663 45.7412 44.17 46.64C39.91 50.16 34.71 51.57 30.29 50.48H30.21C27.94 46.2 28.21 40.78 30.8 35.83C31.4628 34.5868 32.2502 33.4141 33.15 32.33C33.54 31.86 33.94 31.41 34.36 30.98C35.6516 29.642 37.1182 28.4848 38.72 27.54C42.0951 25.4031 46.1722 24.6709 50.08 25.5H50.21C51.097 27.2857 51.5752 29.2465 51.61 31.24C51.6507 33.2544 51.3428 35.2606 50.7 37.17C49.9229 39.5218 48.727 41.7137 47.17 43.64V43.64Z" stroke="white" stroke-miterlimit="10"></path><path d="M47.17 43.64C46.2712 44.7363 45.2663 45.7412 44.17 46.64C39.91 50.16 34.71 51.57 30.29 50.48V50.42C28.02 46.14 28.29 40.72 30.88 35.77C31.5428 34.5268 32.3302 33.3541 33.23 32.27C33.62 31.8 34.02 31.35 34.44 30.92C35.7316 29.5819 37.1982 28.4248 38.8 27.48C42.1619 25.3846 46.2055 24.6748 50.08 25.5H50.21C51.097 27.2857 51.5752 29.2464 51.61 31.24C51.6507 33.2543 51.3428 35.2605 50.7 37.17C49.9229 39.5217 48.727 41.7137 47.17 43.64V43.64Z" stroke="white" stroke-miterlimit="10"></path><path d="M28.67 52.77V52.76L28.71 52.71L32.77 47.56L37.37 41.72L41.46 36.54L45.61 31.27L50.17 25.48" stroke="white" stroke-miterlimit="10"></path><path d="M45.82 45.12L35.86 43.43" stroke="white" stroke-miterlimit="10"></path><path d="M31.9 33.92L35.86 43.43" stroke="white" stroke-miterlimit="10"></path><path d="M50.22 37.8L41.56 36.26" stroke="white" stroke-miterlimit="10"></path><path d="M38.25 28.17L41.56 36.26" stroke="white" stroke-miterlimit="10"></path><path d="M30.22 50.51C30.22 50.51 50.22 60.8 59.91 39.12C59.91 39.12 58.5 37.86 49.91 39.12" stroke="white" stroke-miterlimit="10"></path><path d="M25.06 67.6V63.4H27.69V64.14H25.79V65H27.3V65.73H25.79V66.88H27.69V67.61L25.06 67.6Z" fill="white"></path><path d="M30.47 67.68C30.2422 67.6801 30.0159 67.643 29.8 67.57C29.5953 67.5033 29.4052 67.3981 29.24 67.26C29.0812 67.1273 28.9604 66.9547 28.89 66.76L29.58 66.51C29.6177 66.5963 29.6761 66.6719 29.75 66.73C29.8462 66.8022 29.9546 66.8564 30.07 66.89C30.1992 66.9316 30.3343 66.9519 30.47 66.95C30.6066 66.9529 30.7425 66.9292 30.87 66.88C30.9875 66.8435 31.0941 66.7782 31.18 66.69C31.2183 66.6542 31.2486 66.6108 31.2693 66.5626C31.29 66.5144 31.3004 66.4625 31.3 66.41C31.3016 66.3589 31.2917 66.3081 31.2709 66.2613C31.2501 66.2146 31.219 66.1731 31.18 66.14C31.0846 66.0643 30.9761 66.0067 30.86 65.97C30.7326 65.9273 30.6023 65.8939 30.47 65.87C30.1929 65.8311 29.9212 65.7606 29.66 65.66C29.4456 65.5758 29.2562 65.4381 29.11 65.26C28.9636 65.0721 28.8892 64.838 28.9 64.6C28.8947 64.3581 28.9724 64.1217 29.12 63.93C29.2709 63.7387 29.4667 63.5875 29.69 63.49C29.9353 63.3807 30.2015 63.3261 30.47 63.33C30.6945 63.3315 30.9172 63.3687 31.13 63.44C31.3347 63.5067 31.5248 63.612 31.69 63.75C31.85 63.8818 31.971 64.0546 32.04 64.25L31.35 64.5C31.3158 64.4118 31.2567 64.3354 31.18 64.28C31.0819 64.211 30.9741 64.1571 30.86 64.12C30.7326 64.0874 30.6016 64.0706 30.47 64.07C30.3308 64.0639 30.1916 64.0842 30.06 64.13C29.9459 64.1739 29.8409 64.2383 29.75 64.32C29.7122 64.3563 29.6822 64.3997 29.6615 64.4478C29.6409 64.4959 29.6302 64.5477 29.63 64.6C29.6273 64.6548 29.6357 64.7097 29.6546 64.7612C29.6735 64.8127 29.7025 64.8599 29.74 64.9C29.829 64.9754 29.9357 65.027 30.05 65.05L30.47 65.14C30.7361 65.1753 30.9955 65.2494 31.24 65.36C31.4623 65.4503 31.6608 65.5906 31.82 65.77C31.9619 65.9527 32.0361 66.1788 32.03 66.41C32.0344 66.6502 31.9607 66.8853 31.82 67.08C31.6682 67.2746 31.4683 67.4263 31.24 67.52C30.9983 67.6295 30.7353 67.6841 30.47 67.68Z" fill="white"></path><path d="M36.35 63.4V64.14H35.06V67.6H34.33V64.14H33.05V63.4H36.35Z" fill="white"></path><path d="M37.55 67.6V63.4H38.94C39.2189 63.3996 39.4948 63.4575 39.75 63.57C40.0006 63.6748 40.2282 63.8277 40.42 64.02C40.614 64.2105 40.7671 64.4384 40.87 64.69C40.9825 64.9452 41.0404 65.2211 41.04 65.5C41.0395 65.7821 40.9817 66.061 40.87 66.32C40.7638 66.5699 40.6111 66.7973 40.42 66.99C40.2282 67.1823 40.0006 67.3352 39.75 67.44C39.4941 67.5491 39.2182 67.6036 38.94 67.6H37.55ZM38.28 66.87H38.94C39.1195 66.8741 39.2975 66.8364 39.46 66.76C39.7968 66.6136 40.0626 66.3406 40.2 66C40.2718 65.829 40.3092 65.6455 40.31 65.46C40.3005 65.3014 40.2632 65.1458 40.2 65C40.1307 64.8375 40.0286 64.6911 39.9 64.57C39.777 64.4437 39.6311 64.3418 39.47 64.27C39.3018 64.2014 39.1216 64.1674 38.94 64.17H38.28V66.87Z" fill="white"></path><path d="M44.22 65.44H46.14V66.17H44.22V65.44Z" fill="white"></path><path d="M49.38 67.6V67L49.84 66.63C50.02 66.49 50.2 66.33 50.39 66.16C50.58 65.99 50.75 65.82 50.91 65.65C51.0554 65.5032 51.186 65.3424 51.3 65.17C51.3853 65.0527 51.4372 64.9145 51.45 64.77C51.451 64.6538 51.4199 64.5396 51.36 64.44C51.3012 64.3413 51.2187 64.2588 51.12 64.2C51.0216 64.1375 50.9066 64.1062 50.79 64.11C50.6738 64.109 50.5596 64.1401 50.46 64.2C50.3613 64.2588 50.2788 64.3413 50.22 64.44C50.1601 64.5396 50.129 64.6538 50.13 64.77H49.4C49.3954 64.5202 49.4612 64.2741 49.59 64.06C49.7153 63.8532 49.8907 63.6812 50.1 63.56C50.3126 63.4418 50.5518 63.3798 50.795 63.3798C51.0382 63.3798 51.2774 63.4418 51.49 63.56C51.6902 63.6675 51.8643 63.8177 52 64C52.1246 64.2122 52.1902 64.4539 52.19 64.7C52.1886 64.8404 52.1615 64.9794 52.11 65.11C52.0562 65.2576 51.9858 65.3985 51.9 65.53C51.8007 65.6787 51.6939 65.8222 51.58 65.96C51.46 66.1 51.33 66.24 51.18 66.39L50.72 66.85H52.21V67.58L49.38 67.6Z" fill="white"></path><path d="M54.83 67.68C54.5989 67.6821 54.3713 67.6234 54.17 67.51C53.9631 67.3951 53.7852 67.2343 53.65 67.04C53.4974 66.8315 53.3823 66.598 53.31 66.35C53.2328 66.0734 53.1958 65.7871 53.2 65.5C53.1945 65.2161 53.2315 64.9329 53.31 64.66C53.3824 64.4089 53.4974 64.1721 53.65 63.96C53.7879 63.7681 53.9652 63.6078 54.17 63.49C54.3723 63.38 54.5998 63.3248 54.83 63.33C55.0633 63.3258 55.2938 63.3809 55.5 63.49C55.7023 63.6209 55.8731 63.7951 56 64C56.1494 64.2126 56.2611 64.4494 56.33 64.7C56.4118 64.9724 56.4523 65.2555 56.45 65.54C56.451 65.8276 56.4105 66.1139 56.33 66.39C56.2528 66.6094 56.1414 66.8153 56 67C55.8685 67.1939 55.694 67.3547 55.49 67.47C55.2912 67.5945 55.0642 67.6668 54.83 67.68V67.68ZM54.83 66.95C54.9272 66.9531 55.024 66.937 55.1149 66.9027C55.2058 66.8684 55.2891 66.8165 55.36 66.75C55.509 66.6004 55.616 66.4141 55.67 66.21C55.7428 65.9803 55.7799 65.7409 55.78 65.5C55.7816 65.2557 55.7445 65.0126 55.67 64.78C55.6107 64.5787 55.5005 64.3962 55.35 64.25C55.2083 64.1208 55.0216 64.0526 54.83 64.06C54.6811 64.0568 54.5347 64.0986 54.41 64.18C54.2837 64.2586 54.1803 64.3689 54.11 64.5C54.0338 64.6454 53.9767 64.8 53.94 64.96C53.8486 65.3746 53.8693 65.806 54 66.21C54.0581 66.4124 54.1645 66.5977 54.31 66.75C54.4437 66.8984 54.6305 66.9882 54.83 67V66.95Z" fill="white"></path><path d="M58 67.6V64.14H57.47L57.67 63.4H58.73V67.6H58Z" fill="white"></path><path d="M61.47 67.68C61.2124 67.686 60.9586 67.6165 60.74 67.48C60.5246 67.3546 60.3454 67.1754 60.22 66.96C60.0968 66.74 60.0314 66.4922 60.03 66.24H60.77C60.7689 66.3657 60.7999 66.4896 60.86 66.6C60.923 66.7049 61.0127 66.7912 61.12 66.85C61.224 66.9176 61.346 66.9525 61.47 66.95C61.5972 66.9526 61.7224 66.9179 61.83 66.85C61.9342 66.7906 62.0206 66.7042 62.08 66.6C62.1478 66.4924 62.1826 66.3672 62.18 66.24C62.1809 66.1187 62.1535 65.9989 62.1 65.89C62.0368 65.7767 61.9433 65.6833 61.83 65.62C61.6754 65.5539 61.508 65.5232 61.34 65.53H60.26L60.71 63.4H62.77V64.14H61.3L61.16 64.79H61.46C61.7226 64.7941 61.9802 64.8628 62.21 64.99C62.4284 65.1136 62.6089 65.2943 62.7323 65.5128C62.8556 65.7312 62.9171 65.9792 62.91 66.23C62.9103 66.4221 62.8729 66.6123 62.8 66.79C62.7275 66.962 62.6222 67.1182 62.49 67.25C62.3574 67.3812 62.2014 67.4864 62.03 67.56C61.853 67.6363 61.6627 67.6771 61.47 67.68V67.68Z" fill="white"></path><path d="M52.2 90.63C45.8845 91.7809 39.3933 91.5309 33.185 89.8974C26.9768 88.264 21.203 85.2871 16.2717 81.177C11.3404 77.067 7.37193 71.9241 4.64664 66.1118C1.92136 60.2994 0.505805 53.9595 0.500001 47.54C0.499392 44.0502 0.91227 40.5726 1.73 37.18" stroke="white" stroke-miterlimit="10"></path></svg>